<?xml version="1.0" encoding="UTF-8"?>
<svg version="1.1" xmlns="http://www.w3.org/2000/svg" width="32" height="32">
<path d="M0,0 L15,0 L15,1 L17,1 L17,0 L32,0 L32,6 L30,6 L30,7 L31,7 L31,11 L29,11 L29,6 L27,6 L27,7 L28,7 L28,12 L29,12 L29,13 L31,13 L31,12 L32,12 L32,27 L29,27 L29,31 L30,31 L30,30 L31,30 L31,29 L32,29 L32,32 L0,32 L0,13 L3,13 L3,12 L2,12 L2,10 L5,10 L5,9 L2,9 L2,7 L4,7 L4,8 L5,8 L5,7 L6,7 L6,12 L7,12 L7,13 L9,13 L9,12 L10,12 L10,6 L8,6 L8,7 L9,7 L9,11 L7,11 L7,6 L0,6 Z M11,1 L11,2 L14,2 L14,1 Z M17,1 L17,3 L18,3 L18,1 Z M10,2 L10,4 L11,4 L11,2 Z M14,2 L14,3 L15,3 L15,2 Z M15,3 L15,4 L17,4 L17,3 Z M11,4 L11,5 L13,5 L13,4 Z M12,6 L12,14 L11,14 L11,15 L10,15 L10,16 L13,16 L13,15 L14,15 L14,14 L13,14 L13,6 Z M14,6 L14,7 L15,7 L15,12 L14,12 L14,13 L16,13 L16,6 Z M18,6 L18,7 L20,7 L20,12 L19,12 L19,13 L22,13 L22,12 L21,12 L21,7 L22,7 L22,8 L23,8 L23,10 L26,10 L26,9 L24,9 L24,8 L25,8 L25,7 L26,7 L26,6 L24,6 L24,7 L23,7 L23,6 Z M17,7 L17,8 L18,8 L18,7 Z M26,7 L26,8 L27,8 L27,7 Z M26,10 L26,12 L27,12 L27,10 Z M23,11 L23,12 L24,12 L24,11 Z M24,12 L24,13 L26,13 L26,12 Z M3,17 L3,31 L28,31 L28,17 Z " fill="#000000" transform="translate(0,0)"/>
<path d="M0,0 L19,0 L19,7 L0,7 Z M1,3 L1,6 L18,6 L18,3 Z " fill="#000000" transform="translate(8,23)"/>
</svg>
